<svg xmlns="http://www.w3.org/2000/svg" width="640" height="480" viewBox="0 0 640 480">
  <defs>
    <filter id="shadow" x="-20%" y="-20%" width="140%" height="150%">
      <feDropShadow dx="4" dy="6" stdDeviation="5" flood-color="#526669" flood-opacity=".35"/>
    </filter>
  </defs>
  <rect width="640" height="480" rx="24" fill="#eff7f7"/>
  <rect width="640" height="70" rx="24" fill="#f17e24"/>
  <rect y="64" width="640" height="6" fill="#ffb13a"/>
  <text x="28" y="44" font-family="-apple-system,BlinkMacSystemFont,'Noto Sans SC',sans-serif"
        font-size="28" font-weight="700" fill="white">商品详情 / DETAILS</text>
  <circle cx="594" cy="34" r="12" fill="#48b868"/>

  <g filter="url(#shadow)">
    <rect x="20" y="84" width="600" height="370" rx="16" fill="white"/>
  </g>
  <path d="M20 100 Q20 84 36 84 H604 Q620 84 620 100 V148 H20 Z" fill="#344146"/>
  <text x="42" y="126" font-family="-apple-system,BlinkMacSystemFont,'Noto Sans SC',sans-serif"
        font-size="24" font-weight="700" fill="white">正在下载到 SD 卡</text>
  <text x="42" y="183" font-family="-apple-system,BlinkMacSystemFont,'Noto Sans SC',sans-serif"
        font-size="18" fill="#344146">Downloading CIA to SD cache…</text>

  <rect x="42" y="214" width="556" height="32" rx="16" fill="#e1eeef"/>
  <rect x="42" y="214" width="378" height="32" rx="16" fill="#48b868"/>
  <text x="42" y="286" font-family="-apple-system,BlinkMacSystemFont,'Noto Sans SC',sans-serif"
        font-size="20" fill="#6f8489">68%     348.2 / 512.0 MB</text>
  <text x="42" y="334" font-family="-apple-system,BlinkMacSystemFont,'Noto Sans SC',sans-serif"
        font-size="28" font-weight="700" fill="#1da9b5">SPEED  2.46 MB/s</text>
  <text x="446" y="332" font-family="-apple-system,BlinkMacSystemFont,'Noto Sans SC',sans-serif"
        font-size="20" fill="#6f8489">ETA  01:06</text>
  <text x="42" y="379" font-family="ui-monospace,SFMono-Regular,monospace"
        font-size="17" fill="#6f8489">Title ID 0004000012345600</text>

  <rect x="416" y="398" width="182" height="42" rx="8" fill="#e1eeef"/>
  <text x="472" y="426" font-family="-apple-system,BlinkMacSystemFont,'Noto Sans SC',sans-serif"
        font-size="18" font-weight="700" fill="#da4c4c">B  取消</text>
</svg>
