<svg xmlns="http://www.w3.org/2000/svg" width="800" height="480" viewBox="0 0 800 480">
  <defs>
    <filter id="shadow" x="-20%" y="-20%" width="140%" height="150%">
      <feDropShadow dx="3" dy="5" stdDeviation="4" flood-color="#789093" flood-opacity=".35"/>
    </filter>
  </defs>
  <rect width="800" height="480" rx="24" fill="#eff7f7"/>
  <circle cx="68" cy="150" r="56" fill="#e0f0f0"/>
  <circle cx="730" cy="365" r="82" fill="#e0f0f0"/>
  <rect width="800" height="80" rx="24" fill="#f17e24"/>
  <rect y="74" width="800" height="6" fill="#ffb13a"/>
  <text x="34" y="53" font-family="-apple-system,BlinkMacSystemFont,'Noto Sans SC',sans-serif"
        font-size="38" font-weight="700" fill="white">NAS eShop</text>
  <text x="290" y="49" font-family="-apple-system,BlinkMacSystemFont,'Noto Sans SC',sans-serif"
        font-size="18" fill="#ffebd5">Browse &amp; install from your NAS</text>
  <rect x="640" y="22" width="126" height="36" rx="18" fill="#1da9b5"/>
  <text x="665" y="47" font-family="-apple-system,BlinkMacSystemFont,'Noto Sans SC',sans-serif"
        font-size="18" font-weight="700" fill="white">372 games</text>

  <g font-family="-apple-system,BlinkMacSystemFont,'Noto Sans SC',sans-serif">
    <g filter="url(#shadow)">
      <rect x="22" y="104" width="366" height="82" rx="10" fill="#f17e24"/>
      <rect x="28" y="110" width="354" height="70" rx="8" fill="white"/>
      <rect x="40" y="121" width="58" height="48" rx="5" fill="#1da9b5"/>
      <text x="53" y="151" font-size="17" font-weight="700" fill="white">001</text>
      <text x="116" y="139" font-size="20" font-weight="700" fill="#f17e24">星光冒险</text>
      <text x="116" y="163" font-size="15" fill="#6f8489">512 MB  CIA</text>
    </g>
    <g filter="url(#shadow)">
      <rect x="412" y="106" width="366" height="78" rx="8" fill="white"/>
      <rect x="424" y="119" width="58" height="48" rx="5" fill="#f17e24"/>
      <text x="437" y="149" font-size="17" font-weight="700" fill="white">002</text>
      <text x="500" y="137" font-size="20" font-weight="700" fill="#344146">赛车世界 7</text>
      <text x="500" y="161" font-size="15" fill="#6f8489">768 MB  CIA</text>
    </g>
    <g filter="url(#shadow)">
      <rect x="22" y="204" width="366" height="78" rx="8" fill="white"/>
      <rect x="34" y="217" width="58" height="48" rx="5" fill="#48b868"/>
      <text x="47" y="247" font-size="17" font-weight="700" fill="white">003</text>
      <text x="110" y="235" font-size="20" font-weight="700" fill="#344146">森林小镇</text>
      <text x="110" y="259" font-size="15" fill="#6f8489">604 MB  CIA</text>
    </g>
    <g filter="url(#shadow)">
      <rect x="412" y="204" width="366" height="78" rx="8" fill="white"/>
      <rect x="424" y="217" width="58" height="48" rx="5" fill="#1da9b5"/>
      <text x="437" y="247" font-size="17" font-weight="700" fill="white">004</text>
      <text x="500" y="235" font-size="20" font-weight="700" fill="#344146">像素工坊</text>
      <text x="500" y="259" font-size="15" fill="#6f8489">193 MB  CIA</text>
    </g>
    <g filter="url(#shadow)">
      <rect x="22" y="302" width="366" height="78" rx="8" fill="white"/>
      <rect x="34" y="315" width="58" height="48" rx="5" fill="#f17e24"/>
      <text x="47" y="345" font-size="17" font-weight="700" fill="white">005</text>
      <text x="110" y="333" font-size="20" font-weight="700" fill="#344146">月球任务</text>
      <text x="110" y="357" font-size="15" fill="#6f8489">321 MB  CIA</text>
    </g>
    <g filter="url(#shadow)">
      <rect x="412" y="302" width="366" height="78" rx="8" fill="white"/>
      <rect x="424" y="315" width="58" height="48" rx="5" fill="#48b868"/>
      <text x="437" y="345" font-size="17" font-weight="700" fill="white">006</text>
      <text x="500" y="333" font-size="20" font-weight="700" fill="#344146">掌机博物馆</text>
      <text x="500" y="357" font-size="15" fill="#6f8489">88 MB  CIA</text>
    </g>
    <text x="26" y="446" font-size="17" fill="#6f8489">← → Select    ↑ ↓ Row    L/R Page</text>
    <text x="655" y="446" font-size="17" font-weight="700" fill="#f17e24">Page 1 / 62</text>
  </g>
</svg>
